M48
; DRILL file {KiCad 9.0.6} date 2025-12-14T11:20:20-0500
; FORMAT={-:-/ absolute / metric / decimal}
; #@! TF.CreationDate,2025-12-14T11:20:20-05:00
; #@! TF.GenerationSoftware,Kicad,Pcbnew,9.0.6
; #@! TF.FileFunction,Plated,1,2,PTH
FMAT,2
METRIC
; #@! TA.AperFunction,Plated,PTH,ComponentDrill
T1C0.700
; #@! TA.AperFunction,Plated,PTH,ComponentDrill
T2C0.800
; #@! TA.AperFunction,Plated,PTH,ComponentDrill
T3C1.000
%
G90
G05
T1
X128.5Y-94.0
X133.58Y-94.0
T2
X120.92Y-115.0
X121.0Y-110.0
X121.5Y-119.0
X121.5Y-121.0
X123.0Y-84.5
X123.0Y-86.5
X123.5Y-100.0
X123.5Y-105.0
X126.0Y-118.0
X126.0Y-121.0
X128.38Y-97.685
X128.38Y-105.305
X128.42Y-84.5
X128.42Y-89.5
X130.92Y-97.685
X130.92Y-105.305
X131.0Y-118.0
X131.0Y-121.0
X131.08Y-115.0
X131.16Y-110.0
X133.46Y-97.685
X133.46Y-105.305
X134.0Y-110.0
X136.0Y-97.685
X136.0Y-105.305
X137.0Y-94.0
X138.58Y-84.5
X138.58Y-89.5
X139.0Y-110.0
X142.0Y-94.0
X142.5Y-86.045
X142.5Y-88.045
T3
X122.5Y-92.225
X122.5Y-94.765
X140.5Y-98.46
X140.5Y-101.0
M30
