%TF.GenerationSoftware,KiCad,Pcbnew,9.0.6*%
%TF.CreationDate,2025-12-14T11:20:02-05:00*%
%TF.ProjectId,bassboostcircuit,62617373-626f-46f7-9374-636972637569,1*%
%TF.SameCoordinates,Original*%
%TF.FileFunction,Copper,L1,Top*%
%TF.FilePolarity,Positive*%
%FSLAX46Y46*%
G04 Gerber Fmt 4.6, Leading zero omitted, Abs format (unit mm)*
G04 Created by KiCad (PCBNEW 9.0.6) date 2025-12-14 11:20:02*
%MOMM*%
%LPD*%
G01*
G04 APERTURE LIST*
G04 Aperture macros list*
%AMRoundRect*
0 Rectangle with rounded corners*
0 $1 Rounding radius*
0 $2 $3 $4 $5 $6 $7 $8 $9 X,Y pos of 4 corners*
0 Add a 4 corners polygon primitive as box body*
4,1,4,$2,$3,$4,$5,$6,$7,$8,$9,$2,$3,0*
0 Add four circle primitives for the rounded corners*
1,1,$1+$1,$2,$3*
1,1,$1+$1,$4,$5*
1,1,$1+$1,$6,$7*
1,1,$1+$1,$8,$9*
0 Add four rect primitives between the rounded corners*
20,1,$1+$1,$2,$3,$4,$5,0*
20,1,$1+$1,$4,$5,$6,$7,0*
20,1,$1+$1,$6,$7,$8,$9,0*
20,1,$1+$1,$8,$9,$2,$3,0*%
G04 Aperture macros list end*
%TA.AperFunction,ComponentPad*%
%ADD10C,1.600000*%
%TD*%
%TA.AperFunction,ComponentPad*%
%ADD11R,1.700000X1.700000*%
%TD*%
%TA.AperFunction,ComponentPad*%
%ADD12C,1.700000*%
%TD*%
%TA.AperFunction,ComponentPad*%
%ADD13RoundRect,0.250000X-0.550000X0.550000X-0.550000X-0.550000X0.550000X-0.550000X0.550000X0.550000X0*%
%TD*%
%TA.AperFunction,ComponentPad*%
%ADD14RoundRect,0.250000X0.550000X-0.550000X0.550000X0.550000X-0.550000X0.550000X-0.550000X-0.550000X0*%
%TD*%
%TA.AperFunction,ComponentPad*%
%ADD15C,1.400000*%
%TD*%
%TA.AperFunction,Conductor*%
%ADD16C,0.100000*%
%TD*%
%TA.AperFunction,Conductor*%
%ADD17C,0.200000*%
%TD*%
G04 APERTURE END LIST*
D10*
%TO.P,C6,1*%
%TO.N,Net-(U1A--)*%
X131000000Y-121000000D03*
%TO.P,C6,2*%
%TO.N,Net-(C5-Pad2)*%
X126000000Y-121000000D03*
%TD*%
%TO.P,C8,1*%
%TO.N,LINE_IN*%
X139000000Y-110000000D03*
%TO.P,C8,2*%
%TO.N,Net-(U1A-+)*%
X134000000Y-110000000D03*
%TD*%
D11*
%TO.P,J2,1,Pin_1*%
%TO.N,LINE_OUT*%
X140500000Y-98460000D03*
D12*
%TO.P,J2,2,Pin_2*%
%TO.N,LINE_IN*%
X140500000Y-101000000D03*
%TD*%
D10*
%TO.P,C5,1*%
%TO.N,Net-(U1A--)*%
X131000000Y-118000000D03*
%TO.P,C5,2*%
%TO.N,Net-(C5-Pad2)*%
X126000000Y-118000000D03*
%TD*%
%TO.P,R4,1*%
%TO.N,Net-(U1A--)*%
X131080000Y-115000000D03*
%TO.P,R4,2*%
%TO.N,Net-(C4-Pad1)*%
X120920000Y-115000000D03*
%TD*%
%TO.P,R3,1*%
%TO.N,Net-(C1-Pad1)*%
X128420000Y-84500000D03*
%TO.P,R3,2*%
%TO.N,VCC*%
X138580000Y-84500000D03*
%TD*%
D13*
%TO.P,C4,1*%
%TO.N,Net-(C4-Pad1)*%
X121500000Y-119000000D03*
D10*
%TO.P,C4,2*%
%TO.N,GND*%
X121500000Y-121000000D03*
%TD*%
D11*
%TO.P,J1,1,Pin_1*%
%TO.N,GND*%
X122500000Y-92225000D03*
D12*
%TO.P,J1,2,Pin_2*%
%TO.N,VCC*%
X122500000Y-94765000D03*
%TD*%
D10*
%TO.P,R5,1*%
%TO.N,Net-(U1A--)*%
X131160000Y-110000000D03*
%TO.P,R5,2*%
%TO.N,Net-(C5-Pad2)*%
X121000000Y-110000000D03*
%TD*%
D14*
%TO.P,U1,1*%
%TO.N,Net-(C5-Pad2)*%
X128380000Y-105305000D03*
D10*
%TO.P,U1,2,-*%
%TO.N,Net-(U1A--)*%
X130920000Y-105305000D03*
%TO.P,U1,3,+*%
%TO.N,Net-(U1A-+)*%
X133460000Y-105305000D03*
%TO.P,U1,4,V-*%
%TO.N,GND*%
X136000000Y-105305000D03*
%TO.P,U1,5,+*%
X136000000Y-97685000D03*
%TO.P,U1,6,-*%
X133460000Y-97685000D03*
%TO.P,U1,7*%
%TO.N,unconnected-(U1-Pad7)*%
X130920000Y-97685000D03*
%TO.P,U1,8,V+*%
%TO.N,VCC*%
X128380000Y-97685000D03*
%TD*%
%TO.P,R2,1*%
%TO.N,Net-(C1-Pad1)*%
X128420000Y-89500000D03*
%TO.P,R2,2*%
%TO.N,GND*%
X138580000Y-89500000D03*
%TD*%
%TO.P,C3,1*%
%TO.N,VCC*%
X137000000Y-94000000D03*
%TO.P,C3,2*%
%TO.N,GND*%
X142000000Y-94000000D03*
%TD*%
D13*
%TO.P,C2,1*%
%TO.N,VCC*%
X142500000Y-86044888D03*
D10*
%TO.P,C2,2*%
%TO.N,GND*%
X142500000Y-88044888D03*
%TD*%
%TO.P,C7,1*%
%TO.N,Net-(C5-Pad2)*%
X123500000Y-105000000D03*
%TO.P,C7,2*%
%TO.N,LINE_OUT*%
X123500000Y-100000000D03*
%TD*%
D13*
%TO.P,C1,1*%
%TO.N,Net-(C1-Pad1)*%
X123000000Y-84500000D03*
D10*
%TO.P,C1,2*%
%TO.N,GND*%
X123000000Y-86500000D03*
%TD*%
D15*
%TO.P,R1,1*%
%TO.N,Net-(C1-Pad1)*%
X128500000Y-94000000D03*
%TO.P,R1,2*%
%TO.N,Net-(U1A-+)*%
X133580000Y-94000000D03*
%TD*%
D16*
%TO.N,Net-(C5-Pad2)*%
X123500000Y-105000000D02*
X123500000Y-105500000D01*
X123500000Y-105500000D02*
X121000000Y-108000000D01*
X121000000Y-108000000D02*
X121000000Y-110000000D01*
X123500000Y-105000000D02*
X124500000Y-105000000D01*
X124500000Y-105000000D02*
X124805000Y-105305000D01*
%TO.N,LINE_OUT*%
X140500000Y-98460000D02*
X138040000Y-98460000D01*
X138040000Y-98460000D02*
X136500000Y-100000000D01*
X136500000Y-100000000D02*
X123500000Y-100000000D01*
%TO.N,Net-(C1-Pad1)*%
X123000000Y-84500000D02*
X128420000Y-84500000D01*
X128000000Y-84500000D02*
X128500000Y-84500000D01*
X128420000Y-84500000D02*
X128000000Y-84500000D01*
D17*
%TO.N,VCC*%
X142500000Y-86044888D02*
X142500000Y-86000000D01*
X142500000Y-86000000D02*
X141000000Y-84500000D01*
X141000000Y-84500000D02*
X138580000Y-84500000D01*
X122500000Y-94765000D02*
X125420000Y-97685000D01*
X125420000Y-97685000D02*
X128380000Y-97685000D01*
D16*
%TO.N,Net-(U1A-+)*%
X133580000Y-94000000D02*
X132729000Y-94851000D01*
X133460000Y-103460000D02*
X133460000Y-105305000D01*
X132729000Y-94851000D02*
X126649000Y-94851000D01*
X125000000Y-89500000D02*
X124500000Y-89000000D01*
X126649000Y-94851000D02*
X125000000Y-93202000D01*
X125000000Y-93202000D02*
X125000000Y-89500000D01*
X124500000Y-89000000D02*
X120000000Y-89000000D01*
X119500000Y-89500000D02*
X119500000Y-100000000D01*
X120000000Y-89000000D02*
X119500000Y-89500000D01*
X119500000Y-100000000D02*
X122000000Y-102500000D01*
X122000000Y-102500000D02*
X132500000Y-102500000D01*
X132500000Y-102500000D02*
X133460000Y-103460000D01*
%TO.N,Net-(C4-Pad1)*%
X120920000Y-115000000D02*
X120920000Y-118420000D01*
X120920000Y-118420000D02*
X121500000Y-119000000D01*
%TO.N,Net-(C5-Pad2)*%
X126000000Y-113000000D02*
X123000000Y-110000000D01*
X126000000Y-118000000D02*
X126000000Y-113000000D01*
X123000000Y-110000000D02*
X121000000Y-110000000D01*
X126000000Y-121000000D02*
X126000000Y-118000000D01*
%TO.N,Net-(U1A--)*%
X131000000Y-118000000D02*
X131000000Y-121000000D01*
X131080000Y-115000000D02*
X131080000Y-115420000D01*
X131080000Y-115420000D02*
X131000000Y-115500000D01*
X131000000Y-115500000D02*
X131000000Y-118000000D01*
X131160000Y-110000000D02*
X131160000Y-114920000D01*
X131160000Y-114920000D02*
X131080000Y-115000000D01*
X131160000Y-110000000D02*
X131000000Y-110000000D01*
%TO.N,Net-(C5-Pad2)*%
X128380000Y-105305000D02*
X124805000Y-105305000D01*
%TO.N,Net-(U1A--)*%
X131160000Y-110000000D02*
X131160000Y-105545000D01*
X131160000Y-105545000D02*
X130920000Y-105305000D01*
%TO.N,Net-(U1A-+)*%
X134000000Y-110000000D02*
X134000000Y-105845000D01*
X134000000Y-105845000D02*
X133460000Y-105305000D01*
%TO.N,LINE_IN*%
X140500000Y-101000000D02*
X139000000Y-102500000D01*
X139000000Y-102500000D02*
X139000000Y-110000000D01*
%TO.N,Net-(C1-Pad1)*%
X128420000Y-89500000D02*
X128420000Y-89920000D01*
X128420000Y-89920000D02*
X128500000Y-90000000D01*
X128500000Y-90000000D02*
X128500000Y-94000000D01*
X128420000Y-84500000D02*
X128420000Y-89500000D01*
D17*
%TO.N,VCC*%
X136000000Y-87080000D02*
X136000000Y-93000000D01*
X130065000Y-96000000D02*
X128380000Y-97685000D01*
X135000000Y-96000000D02*
X130065000Y-96000000D01*
X138580000Y-84500000D02*
X136000000Y-87080000D01*
X137000000Y-94000000D02*
X135000000Y-96000000D01*
X136000000Y-93000000D02*
X137000000Y-94000000D01*
%TD*%
M02*
